<mxfile host="app.diagrams.net" modified="2021-02-26T12:12:42.620Z" agent="5.0 (Windows NT 10.0; Win64; x64) AppleWebKit/537.36 (KHTML, like Gecko) Chrome/87.0.4280.66 Safari/537.36" etag="3eU5XD7kKRjp9PNEFZRp" version="14.4.3" type="github">
  <diagram name="Page-1" id="bfe91b75-5d2c-26a0-9c1d-138518896778">
    <mxGraphModel dx="2364" dy="2314" grid="1" gridSize="10" guides="1" tooltips="1" connect="1" arrows="1" fold="1" page="1" pageScale="1" pageWidth="1100" pageHeight="850" background="#ffffff" math="0" shadow="0">
      <root>
        <mxCell id="0" />
        <mxCell id="1" parent="0" />
        <mxCell id="7c3789c024ecab99-78" value="Innospace Resource Group (IaaS) - New" style="rounded=1;whiteSpace=wrap;html=1;shadow=0;comic=0;strokeColor=#036897;strokeWidth=2;fillColor=none;fontFamily=Verdana;fontSize=28;fontColor=#6881B3;align=center;arcSize=11;verticalAlign=top;" parent="1" vertex="1">
          <mxGeometry x="260" y="20" width="880" height="420" as="geometry" />
        </mxCell>
        <mxCell id="zYysgDhRsV4P9b-H903_-57" value="" style="shape=image;imageAspect=0;aspect=fixed;verticalLabelPosition=bottom;verticalAlign=top;image=https://upload.wikimedia.org/wikipedia/commons/thumb/c/cb/Microsoft_Dynamics_Logo.svg/1024px-Microsoft_Dynamics_Logo.svg.png;" vertex="1" parent="1">
          <mxGeometry x="660" y="710" width="185.24" height="140" as="geometry" />
        </mxCell>
        <mxCell id="7c3789c024ecab99-79" value="Resource Group (with AAD / CRM) - Existent" style="rounded=1;whiteSpace=wrap;html=1;shadow=0;comic=0;strokeColor=#036897;strokeWidth=2;fillColor=none;fontFamily=Verdana;fontSize=28;fontColor=#6881B3;align=center;arcSize=11;verticalAlign=top;" parent="1" vertex="1">
          <mxGeometry x="260" y="462" width="883" height="420" as="geometry" />
        </mxCell>
        <mxCell id="zYysgDhRsV4P9b-H903_-1" value="" style="html=1;fillColor=#CCCCCC;strokeColor=#6881B3;gradientColor=none;gradientDirection=north;strokeWidth=2;shape=mxgraph.networks.bus;gradientColor=none;gradientDirection=north;fontColor=#ffffff;perimeter=backbonePerimeter;backboneSize=20;" vertex="1" parent="1">
          <mxGeometry x="280" y="152.5" width="830" height="20" as="geometry" />
        </mxCell>
        <mxCell id="zYysgDhRsV4P9b-H903_-6" value="" style="strokeColor=#6881B3;edgeStyle=none;rounded=0;endArrow=none;html=1;strokeWidth=2;" edge="1" target="zYysgDhRsV4P9b-H903_-1" parent="1" source="zYysgDhRsV4P9b-H903_-11">
          <mxGeometry relative="1" as="geometry">
            <mxPoint x="170" y="232.5" as="sourcePoint" />
          </mxGeometry>
        </mxCell>
        <mxCell id="zYysgDhRsV4P9b-H903_-11" value="" style="aspect=fixed;html=1;points=[];align=center;image;fontSize=12;image=img/lib/mscae/CosmosDB.svg;" vertex="1" parent="1">
          <mxGeometry x="925" y="240" width="80" height="80" as="geometry" />
        </mxCell>
        <mxCell id="zYysgDhRsV4P9b-H903_-12" value="Azure Cosmos DB&lt;br&gt;Alternative: MongoDB/Atlas" style="text;html=1;resizable=0;autosize=1;align=center;verticalAlign=middle;points=[];fillColor=none;strokeColor=none;rounded=0;" vertex="1" parent="1">
          <mxGeometry x="892.5" y="329" width="160" height="30" as="geometry" />
        </mxCell>
        <mxCell id="zYysgDhRsV4P9b-H903_-13" value="" style="aspect=fixed;html=1;points=[];align=center;image;fontSize=12;image=img/lib/mscae/Kubernetes.svg;" vertex="1" parent="1">
          <mxGeometry x="365" y="240" width="50" height="48" as="geometry" />
        </mxCell>
        <mxCell id="zYysgDhRsV4P9b-H903_-14" value="" style="strokeColor=#6881B3;edgeStyle=none;rounded=0;endArrow=none;html=1;strokeWidth=2;" edge="1" parent="1" source="zYysgDhRsV4P9b-H903_-13" target="zYysgDhRsV4P9b-H903_-1">
          <mxGeometry relative="1" as="geometry">
            <mxPoint x="180" y="242.5" as="sourcePoint" />
            <mxPoint x="180" y="181.5" as="targetPoint" />
            <Array as="points">
              <mxPoint x="390" y="210" />
            </Array>
          </mxGeometry>
        </mxCell>
        <mxCell id="zYysgDhRsV4P9b-H903_-15" value="Azure AKS" style="text;html=1;resizable=0;autosize=1;align=center;verticalAlign=middle;points=[];fillColor=none;strokeColor=none;rounded=0;" vertex="1" parent="1">
          <mxGeometry x="395" y="220" width="70" height="20" as="geometry" />
        </mxCell>
        <mxCell id="zYysgDhRsV4P9b-H903_-16" value="&lt;b&gt;Azure Virtual Network (VNET 1)&lt;/b&gt;" style="text;html=1;resizable=0;autosize=1;align=center;verticalAlign=middle;points=[];fillColor=none;strokeColor=none;rounded=0;" vertex="1" parent="1">
          <mxGeometry x="907.5" y="152.5" width="190" height="20" as="geometry" />
        </mxCell>
        <mxCell id="zYysgDhRsV4P9b-H903_-45" style="edgeStyle=elbowEdgeStyle;rounded=0;orthogonalLoop=1;jettySize=auto;html=1;entryX=1;entryY=0.5;entryDx=0;entryDy=0;fillColor=#ffe6cc;strokeColor=#d79b00;strokeWidth=2;" edge="1" parent="1" source="zYysgDhRsV4P9b-H903_-17" target="zYysgDhRsV4P9b-H903_-43">
          <mxGeometry relative="1" as="geometry">
            <Array as="points">
              <mxPoint x="250" y="460" />
            </Array>
          </mxGeometry>
        </mxCell>
        <mxCell id="zYysgDhRsV4P9b-H903_-17" value="" style="aspect=fixed;html=1;points=[];align=center;image;fontSize=12;image=img/lib/mscae/Docker.svg;" vertex="1" parent="1">
          <mxGeometry x="300" y="329" width="50" height="41" as="geometry" />
        </mxCell>
        <mxCell id="zYysgDhRsV4P9b-H903_-46" style="edgeStyle=elbowEdgeStyle;rounded=0;orthogonalLoop=1;jettySize=auto;html=1;entryX=1;entryY=0.5;entryDx=0;entryDy=0;fillColor=#ffe6cc;strokeColor=#d79b00;strokeWidth=2;" edge="1" parent="1" source="zYysgDhRsV4P9b-H903_-18" target="zYysgDhRsV4P9b-H903_-43">
          <mxGeometry relative="1" as="geometry">
            <Array as="points">
              <mxPoint x="390" y="450" />
            </Array>
          </mxGeometry>
        </mxCell>
        <mxCell id="zYysgDhRsV4P9b-H903_-18" value="" style="aspect=fixed;html=1;points=[];align=center;image;fontSize=12;image=img/lib/mscae/Docker.svg;" vertex="1" parent="1">
          <mxGeometry x="425" y="329" width="50" height="41" as="geometry" />
        </mxCell>
        <mxCell id="zYysgDhRsV4P9b-H903_-19" value="User Profile &amp;amp; &lt;br&gt;Application Services&lt;br&gt;(MyVoith)" style="text;html=1;resizable=0;autosize=1;align=center;verticalAlign=middle;points=[];fillColor=none;strokeColor=none;rounded=0;" vertex="1" parent="1">
          <mxGeometry x="260" y="380" width="120" height="50" as="geometry" />
        </mxCell>
        <mxCell id="zYysgDhRsV4P9b-H903_-20" value="E-Learning&lt;br&gt;Platform&lt;br&gt;(Drive)" style="text;html=1;resizable=0;autosize=1;align=center;verticalAlign=middle;points=[];fillColor=none;strokeColor=none;rounded=0;" vertex="1" parent="1">
          <mxGeometry x="415" y="375" width="70" height="50" as="geometry" />
        </mxCell>
        <mxCell id="zYysgDhRsV4P9b-H903_-22" value="" style="strokeColor=#6881B3;edgeStyle=none;rounded=0;endArrow=none;html=1;strokeWidth=2;" edge="1" parent="1" source="zYysgDhRsV4P9b-H903_-17" target="zYysgDhRsV4P9b-H903_-13">
          <mxGeometry relative="1" as="geometry">
            <mxPoint x="400" y="250" as="sourcePoint" />
            <mxPoint x="400" y="181.5" as="targetPoint" />
            <Array as="points">
              <mxPoint x="325" y="280" />
            </Array>
          </mxGeometry>
        </mxCell>
        <mxCell id="zYysgDhRsV4P9b-H903_-24" value="" style="strokeColor=#6881B3;edgeStyle=none;rounded=0;endArrow=none;html=1;strokeWidth=2;" edge="1" parent="1" source="zYysgDhRsV4P9b-H903_-18" target="zYysgDhRsV4P9b-H903_-13">
          <mxGeometry relative="1" as="geometry">
            <mxPoint x="335" y="339" as="sourcePoint" />
            <mxPoint x="375" y="280.1538461538462" as="targetPoint" />
            <Array as="points">
              <mxPoint x="450" y="280" />
            </Array>
          </mxGeometry>
        </mxCell>
        <mxCell id="zYysgDhRsV4P9b-H903_-47" style="edgeStyle=elbowEdgeStyle;rounded=0;orthogonalLoop=1;jettySize=auto;html=1;entryX=1;entryY=0.5;entryDx=0;entryDy=0;fillColor=#ffe6cc;strokeColor=#d79b00;strokeWidth=2;" edge="1" parent="1" target="zYysgDhRsV4P9b-H903_-43">
          <mxGeometry relative="1" as="geometry">
            <mxPoint x="550" y="264" as="sourcePoint" />
            <Array as="points">
              <mxPoint x="490" y="430" />
            </Array>
          </mxGeometry>
        </mxCell>
        <mxCell id="zYysgDhRsV4P9b-H903_-26" value="" style="shape=image;imageAspect=0;aspect=fixed;verticalLabelPosition=bottom;verticalAlign=top;image=https://upload.wikimedia.org/wikipedia/commons/4/42/Nop.jpg;" vertex="1" parent="1">
          <mxGeometry x="554.4200000000001" y="234" width="85.58" height="60" as="geometry" />
        </mxCell>
        <mxCell id="zYysgDhRsV4P9b-H903_-27" value="" style="strokeColor=#6881B3;rounded=0;endArrow=none;html=1;strokeWidth=2;" edge="1" parent="1" target="zYysgDhRsV4P9b-H903_-1">
          <mxGeometry relative="1" as="geometry">
            <mxPoint x="600" y="230" as="sourcePoint" />
            <mxPoint x="400" y="181.5" as="targetPoint" />
          </mxGeometry>
        </mxCell>
        <mxCell id="zYysgDhRsV4P9b-H903_-28" value="nop commerce instance&lt;br&gt;(Catalog and checkout services)" style="text;html=1;resizable=0;autosize=1;align=center;verticalAlign=middle;points=[];fillColor=none;strokeColor=none;rounded=0;" vertex="1" parent="1">
          <mxGeometry x="502.21000000000004" y="295" width="190" height="30" as="geometry" />
        </mxCell>
        <mxCell id="zYysgDhRsV4P9b-H903_-48" style="edgeStyle=elbowEdgeStyle;rounded=0;orthogonalLoop=1;jettySize=auto;html=1;exitX=0;exitY=0.5;exitDx=0;exitDy=0;entryX=1;entryY=0.5;entryDx=0;entryDy=0;fillColor=#ffe6cc;strokeColor=#d79b00;dashed=1;strokeWidth=2;" edge="1" parent="1" source="zYysgDhRsV4P9b-H903_-29" target="zYysgDhRsV4P9b-H903_-43">
          <mxGeometry relative="1" as="geometry">
            <Array as="points">
              <mxPoint x="690" y="380" />
              <mxPoint x="710" y="410" />
            </Array>
          </mxGeometry>
        </mxCell>
        <mxCell id="zYysgDhRsV4P9b-H903_-29" value="" style="shape=image;imageAspect=0;aspect=fixed;verticalLabelPosition=bottom;verticalAlign=top;image=https://upload.wikimedia.org/wikipedia/commons/thumb/6/69/CoreMedia_Logo.png/1920px-CoreMedia_Logo.png;" vertex="1" parent="1">
          <mxGeometry x="730.07" y="234" width="169.93" height="50" as="geometry" />
        </mxCell>
        <mxCell id="zYysgDhRsV4P9b-H903_-30" value="Cormedia CMS system&lt;br&gt;(static content service)" style="text;html=1;resizable=0;autosize=1;align=center;verticalAlign=middle;points=[];fillColor=none;strokeColor=none;rounded=0;" vertex="1" parent="1">
          <mxGeometry x="724.96" y="290" width="140" height="30" as="geometry" />
        </mxCell>
        <mxCell id="zYysgDhRsV4P9b-H903_-32" value="" style="strokeColor=#6881B3;rounded=0;endArrow=none;html=1;strokeWidth=2;" edge="1" parent="1" target="zYysgDhRsV4P9b-H903_-1">
          <mxGeometry relative="1" as="geometry">
            <mxPoint x="797" y="234" as="sourcePoint" />
            <mxPoint x="791" y="163" as="targetPoint" />
          </mxGeometry>
        </mxCell>
        <mxCell id="zYysgDhRsV4P9b-H903_-33" value="" style="html=1;fillColor=#CCCCCC;strokeColor=#6881B3;gradientColor=none;gradientDirection=north;strokeWidth=2;shape=mxgraph.networks.bus;gradientColor=none;gradientDirection=north;fontColor=#ffffff;perimeter=backbonePerimeter;backboneSize=20;" vertex="1" parent="1">
          <mxGeometry x="320" y="600" width="777.5" height="20" as="geometry" />
        </mxCell>
        <mxCell id="zYysgDhRsV4P9b-H903_-34" value="&lt;b&gt;Azure Virtual Network (VNET 2)&lt;/b&gt;" style="text;html=1;resizable=0;autosize=1;align=center;verticalAlign=middle;points=[];fillColor=none;strokeColor=none;rounded=0;" vertex="1" parent="1">
          <mxGeometry x="892.5" y="600" width="190" height="20" as="geometry" />
        </mxCell>
        <mxCell id="zYysgDhRsV4P9b-H903_-35" value="" style="verticalLabelPosition=bottom;html=1;verticalAlign=top;align=center;strokeColor=none;fillColor=#00BEF2;shape=mxgraph.azure.azure_active_directory;" vertex="1" parent="1">
          <mxGeometry x="55" y="550" width="74.5" height="75" as="geometry" />
        </mxCell>
        <mxCell id="zYysgDhRsV4P9b-H903_-36" value="Azure Active Directory" style="text;html=1;resizable=0;autosize=1;align=center;verticalAlign=middle;points=[];fillColor=#dae8fc;strokeColor=#6c8ebf;rounded=0;fontStyle=1" vertex="1" parent="1">
          <mxGeometry x="22.25" y="640" width="140" height="20" as="geometry" />
        </mxCell>
        <mxCell id="zYysgDhRsV4P9b-H903_-37" value="" style="aspect=fixed;html=1;points=[];align=center;image;fontSize=12;image=img/lib/azure2/identity/App_Registrations.svg;" vertex="1" parent="1">
          <mxGeometry x="30.000000000000007" y="689" width="39.38" height="40" as="geometry" />
        </mxCell>
        <mxCell id="zYysgDhRsV4P9b-H903_-38" value="App Registrations" style="text;html=1;resizable=0;autosize=1;align=center;verticalAlign=middle;points=[];fillColor=none;strokeColor=none;rounded=0;" vertex="1" parent="1">
          <mxGeometry x="22.25" y="665" width="110" height="20" as="geometry" />
        </mxCell>
        <mxCell id="zYysgDhRsV4P9b-H903_-39" value="&lt;ul&gt;&lt;li&gt;Client ID UserProfile / App Services&lt;/li&gt;&lt;li&gt;Client ID E-Learning Services&lt;/li&gt;&lt;li&gt;Client ID Shop / Checkout &lt;/li&gt;&lt;li&gt;Client ID Cormedia&lt;/li&gt;&lt;br&gt;&lt;/ul&gt;" style="text;html=1;resizable=0;autosize=1;align=left;verticalAlign=middle;points=[];fillColor=none;strokeColor=none;rounded=0;spacingTop=0;" vertex="1" parent="1">
          <mxGeometry y="720" width="240" height="100" as="geometry" />
        </mxCell>
        <mxCell id="zYysgDhRsV4P9b-H903_-43" value="" style="shape=image;imageAspect=0;aspect=fixed;verticalLabelPosition=bottom;verticalAlign=top;image=https://upload.wikimedia.org/wikipedia/commons/thumb/c/c8/OpenID_logo.svg/1920px-OpenID_logo.svg.png;" vertex="1" parent="1">
          <mxGeometry x="62.829999999999984" y="520" width="66.67" height="25" as="geometry" />
        </mxCell>
        <mxCell id="zYysgDhRsV4P9b-H903_-49" value="" style="shape=image;imageAspect=0;aspect=fixed;verticalLabelPosition=bottom;verticalAlign=top;image=https://upload.wikimedia.org/wikipedia/commons/thumb/c/cb/Microsoft_Dynamics_Logo.svg/1024px-Microsoft_Dynamics_Logo.svg.png;" vertex="1" parent="1">
          <mxGeometry x="437.09" y="710" width="185.24" height="140" as="geometry" />
        </mxCell>
        <mxCell id="zYysgDhRsV4P9b-H903_-62" style="edgeStyle=elbowEdgeStyle;shape=link;rounded=0;orthogonalLoop=1;jettySize=auto;elbow=vertical;html=1;exitX=0.01;exitY=0.01;exitDx=0;exitDy=0;exitPerimeter=0;entryX=1;entryY=0.58;entryDx=0;entryDy=0;entryPerimeter=0;fillColor=#f8cecc;strokeColor=#b85450;strokeWidth=2;" edge="1" parent="1" source="zYysgDhRsV4P9b-H903_-50" target="zYysgDhRsV4P9b-H903_-35">
          <mxGeometry relative="1" as="geometry">
            <Array as="points">
              <mxPoint x="320" y="630" />
            </Array>
          </mxGeometry>
        </mxCell>
        <mxCell id="zYysgDhRsV4P9b-H903_-50" value="" style="fontColor=#0066CC;verticalAlign=top;verticalLabelPosition=bottom;labelPosition=center;align=center;html=1;outlineConnect=0;fillColor=#CCCCCC;strokeColor=#6881B3;gradientColor=none;gradientDirection=north;strokeWidth=2;shape=mxgraph.networks.virtual_server;" vertex="1" parent="1">
          <mxGeometry x="502.21" y="689" width="55" height="61" as="geometry" />
        </mxCell>
        <mxCell id="zYysgDhRsV4P9b-H903_-51" value="&lt;b&gt;CRM System&lt;/b&gt;" style="text;html=1;resizable=0;autosize=1;align=center;verticalAlign=middle;points=[];fillColor=none;strokeColor=none;rounded=0;" vertex="1" parent="1">
          <mxGeometry x="484.71" y="750" width="90" height="20" as="geometry" />
        </mxCell>
        <mxCell id="zYysgDhRsV4P9b-H903_-52" value="" style="strokeColor=#6881B3;rounded=0;endArrow=none;html=1;strokeWidth=2;exitX=0.5;exitY=0;exitDx=0;exitDy=0;exitPerimeter=0;" edge="1" parent="1" source="zYysgDhRsV4P9b-H903_-50" target="zYysgDhRsV4P9b-H903_-33">
          <mxGeometry relative="1" as="geometry">
            <mxPoint x="607" y="678.5" as="sourcePoint" />
            <mxPoint x="607" y="620" as="targetPoint" />
            <Array as="points">
              <mxPoint x="530" y="650" />
            </Array>
          </mxGeometry>
        </mxCell>
        <mxCell id="zYysgDhRsV4P9b-H903_-55" value="" style="fontColor=#0066CC;verticalAlign=top;verticalLabelPosition=bottom;labelPosition=center;align=center;html=1;outlineConnect=0;fillColor=#CCCCCC;strokeColor=#6881B3;gradientColor=none;gradientDirection=north;strokeWidth=2;shape=mxgraph.networks.virtual_server;" vertex="1" parent="1">
          <mxGeometry x="740" y="689" width="55" height="61" as="geometry" />
        </mxCell>
        <mxCell id="zYysgDhRsV4P9b-H903_-56" value="&lt;b&gt;ERP System&lt;/b&gt;" style="text;html=1;resizable=0;autosize=1;align=center;verticalAlign=middle;points=[];fillColor=none;strokeColor=none;rounded=0;" vertex="1" parent="1">
          <mxGeometry x="722.5" y="750" width="90" height="20" as="geometry" />
        </mxCell>
        <mxCell id="zYysgDhRsV4P9b-H903_-58" value="" style="strokeColor=#6881B3;rounded=0;endArrow=none;html=1;strokeWidth=2;exitX=0.5;exitY=0;exitDx=0;exitDy=0;exitPerimeter=0;" edge="1" parent="1" source="zYysgDhRsV4P9b-H903_-55" target="zYysgDhRsV4P9b-H903_-33">
          <mxGeometry relative="1" as="geometry">
            <mxPoint x="539.71" y="699" as="sourcePoint" />
            <mxPoint x="540" y="629" as="targetPoint" />
            <Array as="points" />
          </mxGeometry>
        </mxCell>
        <mxCell id="zYysgDhRsV4P9b-H903_-64" value="User Frame Data Sync" style="text;html=1;resizable=0;autosize=1;align=center;verticalAlign=middle;points=[];fillColor=none;strokeColor=none;rounded=0;" vertex="1" parent="1">
          <mxGeometry x="290" y="645" width="140" height="20" as="geometry" />
        </mxCell>
        <mxCell id="zYysgDhRsV4P9b-H903_-65" value="" style="aspect=fixed;html=1;points=[];align=center;image;fontSize=12;image=img/lib/azure2/app_services/API_Management_Services.svg;" vertex="1" parent="1">
          <mxGeometry x="42.83" y="510" width="21.67" height="20" as="geometry" />
        </mxCell>
        <mxCell id="zYysgDhRsV4P9b-H903_-67" value="OIDC / Graph API" style="text;html=1;resizable=0;autosize=1;align=center;verticalAlign=middle;points=[];fillColor=none;strokeColor=none;rounded=0;fontStyle=1" vertex="1" parent="1">
          <mxGeometry x="64.5" y="500" width="110" height="20" as="geometry" />
        </mxCell>
        <mxCell id="zYysgDhRsV4P9b-H903_-68" value="" style="fontColor=#0066CC;verticalAlign=top;verticalLabelPosition=bottom;labelPosition=center;align=center;html=1;outlineConnect=0;fillColor=#CCCCCC;strokeColor=#6881B3;gradientColor=none;gradientDirection=north;strokeWidth=2;shape=mxgraph.networks.virtual_server;" vertex="1" parent="1">
          <mxGeometry x="950" y="689" width="55" height="61" as="geometry" />
        </mxCell>
        <mxCell id="zYysgDhRsV4P9b-H903_-69" value="&lt;b&gt;Marketing System&lt;br&gt;Dynamics Marketing&lt;br&gt;&lt;/b&gt;" style="text;html=1;resizable=0;autosize=1;align=center;verticalAlign=middle;points=[];fillColor=none;strokeColor=none;rounded=0;" vertex="1" parent="1">
          <mxGeometry x="915" y="750" width="130" height="30" as="geometry" />
        </mxCell>
        <mxCell id="zYysgDhRsV4P9b-H903_-70" value="" style="strokeColor=#6881B3;rounded=0;endArrow=none;html=1;strokeWidth=2;exitX=0.5;exitY=0;exitDx=0;exitDy=0;exitPerimeter=0;" edge="1" parent="1">
          <mxGeometry relative="1" as="geometry">
            <mxPoint x="977" y="689" as="sourcePoint" />
            <mxPoint x="977" y="619" as="targetPoint" />
            <Array as="points" />
          </mxGeometry>
        </mxCell>
        <mxCell id="zYysgDhRsV4P9b-H903_-72" value="" style="aspect=fixed;html=1;points=[];align=center;image;fontSize=12;image=img/lib/azure2/app_services/API_Management_Services.svg;" vertex="1" parent="1">
          <mxGeometry x="787.5" y="640" width="21.67" height="20" as="geometry" />
        </mxCell>
        <mxCell id="zYysgDhRsV4P9b-H903_-73" value="REST API" style="text;html=1;resizable=0;autosize=1;align=center;verticalAlign=middle;points=[];fillColor=none;strokeColor=none;rounded=0;" vertex="1" parent="1">
          <mxGeometry x="775.24" y="662" width="70" height="20" as="geometry" />
        </mxCell>
        <mxCell id="zYysgDhRsV4P9b-H903_-74" value="" style="aspect=fixed;html=1;points=[];align=center;image;fontSize=12;image=img/lib/azure2/app_services/API_Management_Services.svg;" vertex="1" parent="1">
          <mxGeometry x="992.26" y="639" width="21.67" height="20" as="geometry" />
        </mxCell>
        <mxCell id="zYysgDhRsV4P9b-H903_-75" value="REST API" style="text;html=1;resizable=0;autosize=1;align=center;verticalAlign=middle;points=[];fillColor=none;strokeColor=none;rounded=0;" vertex="1" parent="1">
          <mxGeometry x="980" y="661" width="70" height="20" as="geometry" />
        </mxCell>
        <mxCell id="zYysgDhRsV4P9b-H903_-76" value="" style="aspect=fixed;html=1;points=[];align=center;image;fontSize=12;image=img/lib/azure2/app_services/API_Management_Services.svg;" vertex="1" parent="1">
          <mxGeometry x="552.26" y="640" width="21.67" height="20" as="geometry" />
        </mxCell>
        <mxCell id="zYysgDhRsV4P9b-H903_-77" value="REST API" style="text;html=1;resizable=0;autosize=1;align=center;verticalAlign=middle;points=[];fillColor=none;strokeColor=none;rounded=0;" vertex="1" parent="1">
          <mxGeometry x="540" y="662" width="70" height="20" as="geometry" />
        </mxCell>
        <mxCell id="zYysgDhRsV4P9b-H903_-86" style="edgeStyle=elbowEdgeStyle;rounded=0;orthogonalLoop=1;jettySize=auto;elbow=vertical;html=1;fillColor=#e1d5e7;strokeColor=#9673a6;strokeWidth=3;" edge="1" parent="1" source="zYysgDhRsV4P9b-H903_-78" target="zYysgDhRsV4P9b-H903_-74">
          <mxGeometry relative="1" as="geometry">
            <Array as="points">
              <mxPoint x="1070" y="540" />
            </Array>
          </mxGeometry>
        </mxCell>
        <mxCell id="zYysgDhRsV4P9b-H903_-87" style="edgeStyle=elbowEdgeStyle;rounded=0;orthogonalLoop=1;jettySize=auto;elbow=vertical;html=1;entryX=0.438;entryY=-0.05;entryDx=0;entryDy=0;entryPerimeter=0;fillColor=#e1d5e7;strokeColor=#9673a6;strokeWidth=3;" edge="1" parent="1" source="zYysgDhRsV4P9b-H903_-78" target="zYysgDhRsV4P9b-H903_-72">
          <mxGeometry relative="1" as="geometry">
            <Array as="points">
              <mxPoint x="970" y="540" />
            </Array>
          </mxGeometry>
        </mxCell>
        <mxCell id="zYysgDhRsV4P9b-H903_-88" style="edgeStyle=elbowEdgeStyle;rounded=0;orthogonalLoop=1;jettySize=auto;elbow=vertical;html=1;entryX=0.496;entryY=0.05;entryDx=0;entryDy=0;entryPerimeter=0;fillColor=#e1d5e7;strokeColor=#9673a6;strokeWidth=3;" edge="1" parent="1" source="zYysgDhRsV4P9b-H903_-78" target="zYysgDhRsV4P9b-H903_-76">
          <mxGeometry relative="1" as="geometry">
            <Array as="points">
              <mxPoint x="860" y="540" />
            </Array>
          </mxGeometry>
        </mxCell>
        <mxCell id="zYysgDhRsV4P9b-H903_-78" value="" style="aspect=fixed;html=1;points=[];align=center;image;fontSize=12;image=img/lib/mscae/Application_Gateway.svg;" vertex="1" parent="1">
          <mxGeometry x="1120" y="515" width="50" height="50" as="geometry" />
        </mxCell>
        <mxCell id="zYysgDhRsV4P9b-H903_-80" style="edgeStyle=elbowEdgeStyle;rounded=0;orthogonalLoop=1;jettySize=auto;elbow=vertical;html=1;fillColor=#e1d5e7;strokeColor=#9673a6;strokeWidth=3;" edge="1" parent="1" source="zYysgDhRsV4P9b-H903_-79" target="zYysgDhRsV4P9b-H903_-29">
          <mxGeometry relative="1" as="geometry">
            <mxPoint x="1110" y="107" as="sourcePoint" />
            <Array as="points">
              <mxPoint x="1010" y="100" />
              <mxPoint x="840" y="130" />
              <mxPoint x="990" y="100" />
              <mxPoint x="970" y="100" />
              <mxPoint x="960" y="108" />
              <mxPoint x="970" y="140" />
              <mxPoint x="850" y="107" />
            </Array>
          </mxGeometry>
        </mxCell>
        <mxCell id="zYysgDhRsV4P9b-H903_-81" style="edgeStyle=elbowEdgeStyle;rounded=0;orthogonalLoop=1;jettySize=auto;elbow=vertical;html=1;entryX=0.75;entryY=0;entryDx=0;entryDy=0;fillColor=#e1d5e7;strokeColor=#9673a6;strokeWidth=3;" edge="1" parent="1" source="zYysgDhRsV4P9b-H903_-79" target="zYysgDhRsV4P9b-H903_-26">
          <mxGeometry relative="1" as="geometry">
            <mxPoint x="1110" y="108" as="sourcePoint" />
            <Array as="points">
              <mxPoint x="780" y="100" />
              <mxPoint x="960" y="108" />
              <mxPoint x="960" y="90" />
              <mxPoint x="880" y="108" />
            </Array>
          </mxGeometry>
        </mxCell>
        <mxCell id="zYysgDhRsV4P9b-H903_-82" style="edgeStyle=elbowEdgeStyle;rounded=0;orthogonalLoop=1;jettySize=auto;elbow=vertical;html=1;entryX=0.84;entryY=-0.024;entryDx=0;entryDy=0;entryPerimeter=0;fillColor=#e1d5e7;strokeColor=#9673a6;strokeWidth=3;" edge="1" parent="1" source="zYysgDhRsV4P9b-H903_-79" target="zYysgDhRsV4P9b-H903_-18">
          <mxGeometry relative="1" as="geometry">
            <mxPoint x="1110" y="108" as="sourcePoint" />
            <Array as="points">
              <mxPoint x="520" y="100" />
              <mxPoint x="960" y="110" />
              <mxPoint x="960" y="120" />
              <mxPoint x="810" y="108" />
              <mxPoint x="810" y="108" />
            </Array>
          </mxGeometry>
        </mxCell>
        <mxCell id="zYysgDhRsV4P9b-H903_-83" style="edgeStyle=elbowEdgeStyle;rounded=0;orthogonalLoop=1;jettySize=auto;elbow=vertical;html=1;entryX=0.2;entryY=-0.049;entryDx=0;entryDy=0;entryPerimeter=0;fillColor=#e1d5e7;strokeColor=#9673a6;strokeWidth=3;" edge="1" parent="1" source="zYysgDhRsV4P9b-H903_-79" target="zYysgDhRsV4P9b-H903_-17">
          <mxGeometry relative="1" as="geometry">
            <mxPoint x="1110" y="108" as="sourcePoint" />
            <Array as="points">
              <mxPoint x="760" y="100" />
              <mxPoint x="530" y="100" />
              <mxPoint x="400" y="108" />
              <mxPoint x="420" y="108" />
              <mxPoint x="950" y="108" />
              <mxPoint x="1000" y="90" />
              <mxPoint x="900" y="108" />
              <mxPoint x="900" y="120" />
              <mxPoint x="880" y="108" />
              <mxPoint x="730" y="108" />
            </Array>
          </mxGeometry>
        </mxCell>
        <mxCell id="zYysgDhRsV4P9b-H903_-79" value="" style="aspect=fixed;html=1;points=[];align=center;image;fontSize=12;image=img/lib/mscae/Application_Gateway.svg;" vertex="1" parent="1">
          <mxGeometry x="1120" y="82.5" width="50" height="50" as="geometry" />
        </mxCell>
        <mxCell id="zYysgDhRsV4P9b-H903_-85" value="HTTP Traffic" style="text;html=1;resizable=0;autosize=1;align=center;verticalAlign=middle;points=[];fillColor=#e1d5e7;strokeColor=#9673a6;rounded=0;fontStyle=1" vertex="1" parent="1">
          <mxGeometry x="1025" y="70" width="90" height="20" as="geometry" />
        </mxCell>
        <mxCell id="zYysgDhRsV4P9b-H903_-89" value="HTTP Traffic" style="text;html=1;resizable=0;autosize=1;align=center;verticalAlign=middle;points=[];fillColor=#e1d5e7;strokeColor=#9673a6;rounded=0;fontStyle=1" vertex="1" parent="1">
          <mxGeometry x="1030" y="515" width="90" height="20" as="geometry" />
        </mxCell>
        <mxCell id="zYysgDhRsV4P9b-H903_-90" value="" style="aspect=fixed;html=1;points=[];align=center;image;fontSize=12;image=img/lib/mscae/Virtual_Network.svg;" vertex="1" parent="1">
          <mxGeometry x="875" y="603" width="25" height="14" as="geometry" />
        </mxCell>
        <mxCell id="zYysgDhRsV4P9b-H903_-91" value="" style="aspect=fixed;html=1;points=[];align=center;image;fontSize=12;image=img/lib/mscae/Virtual_Network.svg;" vertex="1" parent="1">
          <mxGeometry x="885" y="155.5" width="25" height="14" as="geometry" />
        </mxCell>
        <mxCell id="zYysgDhRsV4P9b-H903_-92" value="" style="aspect=fixed;html=1;points=[];align=center;image;fontSize=12;image=img/lib/mscae/Application_Security_Groups.svg;" vertex="1" parent="1">
          <mxGeometry x="1160" y="480" width="37" height="50" as="geometry" />
        </mxCell>
        <mxCell id="zYysgDhRsV4P9b-H903_-93" value="&lt;b&gt;Public, i.e. https://innospace.vde.com&lt;br&gt;&lt;/b&gt;" style="text;html=1;resizable=0;autosize=1;align=center;verticalAlign=middle;points=[];fillColor=none;strokeColor=none;rounded=0;" vertex="1" parent="1">
          <mxGeometry x="1143" y="60" width="230" height="20" as="geometry" />
        </mxCell>
        <mxCell id="zYysgDhRsV4P9b-H903_-94" value="&lt;b&gt;Restricts access&lt;br&gt;to VNET 1&lt;br&gt;&lt;/b&gt;" style="text;html=1;resizable=0;autosize=1;align=center;verticalAlign=middle;points=[];fillColor=none;strokeColor=none;rounded=0;" vertex="1" parent="1">
          <mxGeometry x="1175" y="530" width="110" height="30" as="geometry" />
        </mxCell>
        <mxCell id="zYysgDhRsV4P9b-H903_-95" value="Legacy/On Prem Systems" style="rounded=1;whiteSpace=wrap;html=1;shadow=0;comic=0;strokeColor=#036897;strokeWidth=2;fillColor=none;fontFamily=Verdana;fontSize=28;fontColor=#6881B3;align=center;arcSize=11;verticalAlign=top;" vertex="1" parent="1">
          <mxGeometry x="260" y="900" width="885" height="420" as="geometry" />
        </mxCell>
        <mxCell id="zYysgDhRsV4P9b-H903_-96" value="" style="aspect=fixed;html=1;points=[];align=center;image;fontSize=12;image=img/lib/mscae/Web_App_Firewall.svg;" vertex="1" parent="1">
          <mxGeometry x="1115" y="980" width="60" height="60" as="geometry" />
        </mxCell>
        <mxCell id="zYysgDhRsV4P9b-H903_-97" value="" style="fontColor=#0066CC;verticalAlign=top;verticalLabelPosition=bottom;labelPosition=center;align=center;html=1;outlineConnect=0;fillColor=#CCCCCC;strokeColor=#6881B3;gradientColor=none;gradientDirection=north;strokeWidth=2;shape=mxgraph.networks.virtual_server;" vertex="1" parent="1">
          <mxGeometry x="945" y="1168" width="55" height="61" as="geometry" />
        </mxCell>
        <mxCell id="zYysgDhRsV4P9b-H903_-98" value="" style="html=1;fillColor=#CCCCCC;strokeColor=#6881B3;gradientColor=none;gradientDirection=north;strokeWidth=2;shape=mxgraph.networks.bus;gradientColor=none;gradientDirection=north;fontColor=#ffffff;perimeter=backbonePerimeter;backboneSize=20;" vertex="1" parent="1">
          <mxGeometry x="320" y="1070" width="702.5" height="20" as="geometry" />
        </mxCell>
        <mxCell id="zYysgDhRsV4P9b-H903_-99" value="&lt;b&gt;On Prem Network&lt;/b&gt;" style="text;html=1;resizable=0;autosize=1;align=center;verticalAlign=middle;points=[];fillColor=none;strokeColor=none;rounded=0;" vertex="1" parent="1">
          <mxGeometry x="845" y="1070" width="120" height="20" as="geometry" />
        </mxCell>
        <mxCell id="zYysgDhRsV4P9b-H903_-100" value="" style="strokeColor=#6881B3;rounded=0;endArrow=none;html=1;strokeWidth=2;entryX=0.936;entryY=1.014;entryDx=0;entryDy=0;entryPerimeter=0;" edge="1" parent="1" target="zYysgDhRsV4P9b-H903_-98">
          <mxGeometry relative="1" as="geometry">
            <mxPoint x="973" y="1168" as="sourcePoint" />
            <mxPoint x="975" y="1080" as="targetPoint" />
            <Array as="points" />
          </mxGeometry>
        </mxCell>
        <mxCell id="zYysgDhRsV4P9b-H903_-101" value="&lt;b&gt;Marketing System&lt;br&gt;Evalance&lt;br&gt;&lt;/b&gt;" style="text;html=1;resizable=0;autosize=1;align=center;verticalAlign=middle;points=[];fillColor=none;strokeColor=none;rounded=0;" vertex="1" parent="1">
          <mxGeometry x="910" y="1234" width="120" height="30" as="geometry" />
        </mxCell>
        <mxCell id="zYysgDhRsV4P9b-H903_-102" value="" style="fontColor=#0066CC;verticalAlign=top;verticalLabelPosition=bottom;labelPosition=center;align=center;html=1;outlineConnect=0;fillColor=#CCCCCC;strokeColor=#6881B3;gradientColor=none;gradientDirection=north;strokeWidth=2;shape=mxgraph.networks.virtual_server;" vertex="1" parent="1">
          <mxGeometry x="777.21" y="1168.5" width="55" height="61" as="geometry" />
        </mxCell>
        <mxCell id="zYysgDhRsV4P9b-H903_-103" value="" style="shape=image;imageAspect=0;aspect=fixed;verticalLabelPosition=bottom;verticalAlign=top;image=https://upload.wikimedia.org/wikipedia/commons/thumb/c/cb/Microsoft_Dynamics_Logo.svg/1024px-Microsoft_Dynamics_Logo.svg.png;" vertex="1" parent="1">
          <mxGeometry x="697.21" y="1189.5" width="185.24" height="140" as="geometry" />
        </mxCell>
        <mxCell id="zYysgDhRsV4P9b-H903_-104" value="&lt;b&gt;ERP System&lt;/b&gt;" style="text;html=1;resizable=0;autosize=1;align=center;verticalAlign=middle;points=[];fillColor=none;strokeColor=none;rounded=0;" vertex="1" parent="1">
          <mxGeometry x="758.33" y="1229.5" width="90" height="20" as="geometry" />
        </mxCell>
        <mxCell id="zYysgDhRsV4P9b-H903_-105" value="" style="strokeColor=#6881B3;rounded=0;endArrow=none;html=1;strokeWidth=2;entryX=0.936;entryY=1.014;entryDx=0;entryDy=0;entryPerimeter=0;" edge="1" parent="1">
          <mxGeometry relative="1" as="geometry">
            <mxPoint x="803.31" y="1168.5" as="sourcePoint" />
            <mxPoint x="803.05" y="1090.78" as="targetPoint" />
            <Array as="points" />
          </mxGeometry>
        </mxCell>
        <mxCell id="zYysgDhRsV4P9b-H903_-106" value="" style="aspect=fixed;html=1;points=[];align=center;image;fontSize=12;image=img/lib/azure2/app_services/API_Management_Services.svg;" vertex="1" parent="1">
          <mxGeometry x="992.26" y="1126.5" width="21.67" height="20" as="geometry" />
        </mxCell>
        <mxCell id="zYysgDhRsV4P9b-H903_-107" value="REST API" style="text;html=1;resizable=0;autosize=1;align=center;verticalAlign=middle;points=[];fillColor=none;strokeColor=none;rounded=0;" vertex="1" parent="1">
          <mxGeometry x="980" y="1148.5" width="70" height="20" as="geometry" />
        </mxCell>
        <mxCell id="zYysgDhRsV4P9b-H903_-108" value="REST API" style="text;html=1;resizable=0;autosize=1;align=center;verticalAlign=middle;points=[];fillColor=none;strokeColor=none;rounded=0;" vertex="1" parent="1">
          <mxGeometry x="775.24" y="562" width="70" height="20" as="geometry" />
        </mxCell>
        <mxCell id="zYysgDhRsV4P9b-H903_-116" value="" style="aspect=fixed;html=1;points=[];align=center;image;fontSize=12;image=img/lib/azure2/app_services/API_Management_Services.svg;" vertex="1" parent="1">
          <mxGeometry x="822.26" y="1126" width="21.67" height="20" as="geometry" />
        </mxCell>
        <mxCell id="zYysgDhRsV4P9b-H903_-117" value="REST API" style="text;html=1;resizable=0;autosize=1;align=center;verticalAlign=middle;points=[];fillColor=none;strokeColor=none;rounded=0;" vertex="1" parent="1">
          <mxGeometry x="810" y="1148" width="70" height="20" as="geometry" />
        </mxCell>
        <mxCell id="zYysgDhRsV4P9b-H903_-121" value="HTTP Traffic" style="text;html=1;resizable=0;autosize=1;align=center;verticalAlign=middle;points=[];fillColor=#e1d5e7;strokeColor=#9673a6;rounded=0;fontStyle=1" vertex="1" parent="1">
          <mxGeometry x="1020" y="1000" width="90" height="20" as="geometry" />
        </mxCell>
        <mxCell id="zYysgDhRsV4P9b-H903_-119" style="edgeStyle=elbowEdgeStyle;rounded=0;orthogonalLoop=1;jettySize=auto;elbow=vertical;html=1;strokeWidth=3;fillColor=#e1d5e7;strokeColor=#9673a6;" edge="1" parent="1" source="zYysgDhRsV4P9b-H903_-96" target="zYysgDhRsV4P9b-H903_-116">
          <mxGeometry relative="1" as="geometry">
            <Array as="points">
              <mxPoint x="990" y="1030" />
            </Array>
          </mxGeometry>
        </mxCell>
        <mxCell id="zYysgDhRsV4P9b-H903_-120" style="edgeStyle=elbowEdgeStyle;rounded=0;orthogonalLoop=1;jettySize=auto;elbow=vertical;html=1;strokeWidth=3;fillColor=#e1d5e7;strokeColor=#9673a6;" edge="1" parent="1" source="zYysgDhRsV4P9b-H903_-96" target="zYysgDhRsV4P9b-H903_-106">
          <mxGeometry relative="1" as="geometry">
            <Array as="points">
              <mxPoint x="1080" y="1030" />
            </Array>
          </mxGeometry>
        </mxCell>
        <mxCell id="zYysgDhRsV4P9b-H903_-122" value="" style="aspect=fixed;html=1;points=[];align=center;image;fontSize=12;image=img/lib/mscae/Application_Security_Groups.svg;" vertex="1" parent="1">
          <mxGeometry x="1167.5" y="934" width="37" height="50" as="geometry" />
        </mxCell>
        <mxCell id="zYysgDhRsV4P9b-H903_-123" value="&lt;b&gt;Restricts access&lt;br&gt;to VNET 1&lt;br&gt;&lt;/b&gt;" style="text;html=1;resizable=0;autosize=1;align=center;verticalAlign=middle;points=[];fillColor=none;strokeColor=none;rounded=0;" vertex="1" parent="1">
          <mxGeometry x="1182.5" y="984" width="110" height="30" as="geometry" />
        </mxCell>
        <mxCell id="zYysgDhRsV4P9b-H903_-127" style="edgeStyle=elbowEdgeStyle;rounded=0;orthogonalLoop=1;jettySize=auto;elbow=vertical;html=1;strokeWidth=2;" edge="1" parent="1" source="zYysgDhRsV4P9b-H903_-125">
          <mxGeometry relative="1" as="geometry">
            <mxPoint x="1170" y="110" as="targetPoint" />
          </mxGeometry>
        </mxCell>
        <mxCell id="zYysgDhRsV4P9b-H903_-125" value="" style="aspect=fixed;perimeter=ellipsePerimeter;html=1;align=center;shadow=0;dashed=0;spacingTop=3;image;image=img/lib/active_directory/laptop_client.svg;" vertex="1" parent="1">
          <mxGeometry x="1420" y="50" width="63" height="70" as="geometry" />
        </mxCell>
        <mxCell id="zYysgDhRsV4P9b-H903_-128" style="edgeStyle=elbowEdgeStyle;rounded=0;orthogonalLoop=1;jettySize=auto;elbow=vertical;html=1;strokeWidth=2;" edge="1" parent="1" source="zYysgDhRsV4P9b-H903_-126" target="zYysgDhRsV4P9b-H903_-79">
          <mxGeometry relative="1" as="geometry">
            <Array as="points">
              <mxPoint x="1260" y="110" />
            </Array>
          </mxGeometry>
        </mxCell>
        <mxCell id="zYysgDhRsV4P9b-H903_-126" value="" style="html=1;verticalLabelPosition=bottom;align=center;labelBackgroundColor=#ffffff;verticalAlign=top;strokeWidth=2;strokeColor=#0080F0;shadow=0;dashed=0;shape=mxgraph.ios7.icons.smartphone;" vertex="1" parent="1">
          <mxGeometry x="1344" y="140" width="36" height="50" as="geometry" />
        </mxCell>
        <mxCell id="zYysgDhRsV4P9b-H903_-130" style="edgeStyle=elbowEdgeStyle;rounded=0;orthogonalLoop=1;jettySize=auto;elbow=vertical;html=1;exitX=0;exitY=0.5;exitDx=0;exitDy=0;strokeWidth=2;" edge="1" parent="1" source="7c3789c024ecab99-78" target="7c3789c024ecab99-78">
          <mxGeometry relative="1" as="geometry" />
        </mxCell>
        <mxCell id="zYysgDhRsV4P9b-H903_-132" value="Text" style="text;html=1;resizable=0;autosize=1;align=center;verticalAlign=middle;points=[];fillColor=none;strokeColor=none;rounded=0;" vertex="1" parent="1">
          <mxGeometry x="850" y="140" width="40" height="20" as="geometry" />
        </mxCell>
        <mxCell id="zYysgDhRsV4P9b-H903_-133" value="Innosapce - System architectore Proposal" style="text;html=1;resizable=0;autosize=1;align=center;verticalAlign=middle;points=[];fillColor=none;strokeColor=none;rounded=0;" vertex="1" parent="1">
          <mxGeometry x="180" y="-40" width="240" height="20" as="geometry" />
        </mxCell>
        <mxCell id="zYysgDhRsV4P9b-H903_-134" value="Text" style="text;html=1;resizable=0;autosize=1;align=center;verticalAlign=middle;points=[];fillColor=none;strokeColor=none;rounded=0;" vertex="1" parent="1">
          <mxGeometry x="850" y="140" width="40" height="20" as="geometry" />
        </mxCell>
      </root>
    </mxGraphModel>
  </diagram>
</mxfile>
